%TF.GenerationSoftware,KiCad,Pcbnew,9.0.7*%
%TF.CreationDate,2026-06-06T20:09:16+02:00*%
%TF.ProjectId,Etch_a_Sketch_cad,45746368-5f61-45f5-936b-657463685f63,rev?*%
%TF.SameCoordinates,Original*%
%TF.FileFunction,Copper,L1,Top*%
%TF.FilePolarity,Positive*%
%FSLAX46Y46*%
G04 Gerber Fmt 4.6, Leading zero omitted, Abs format (unit mm)*
G04 Created by KiCad (PCBNEW 9.0.7) date 2026-06-06 20:09:16*
%MOMM*%
%LPD*%
G01*
G04 APERTURE LIST*
%TA.AperFunction,NonConductor*%
%ADD10C,0.200000*%
%TD*%
%TA.AperFunction,WasherPad*%
%ADD11C,2.500000*%
%TD*%
%TA.AperFunction,WasherPad*%
%ADD12C,3.000000*%
%TD*%
%TA.AperFunction,Conductor*%
%ADD13C,1.500000*%
%TD*%
G04 APERTURE END LIST*
D10*
X12000000Y-12000000D02*
X162000000Y-12000000D01*
X162000000Y-112000000D01*
X12000000Y-112000000D01*
X12000000Y-12000000D01*
D11*
%TO.P,GND,*%
%TO.N,*%
X32000000Y-52500000D03*
%TD*%
%TO.P,Cx(1),*%
%TO.N,*%
X26500000Y-83000000D03*
%TD*%
%TO.P,Cx(GND),*%
%TO.N,*%
X29500000Y-83000000D03*
%TD*%
%TO.P,SDA,*%
%TO.N,*%
X85000000Y-68000000D03*
%TD*%
%TO.P,D4(Cx1),*%
%TO.N,*%
X141000000Y-48000000D03*
%TD*%
%TO.P,SCL,*%
%TO.N,*%
X82000000Y-68000000D03*
%TD*%
D12*
%TO.P,Cy(Switch),*%
%TO.N,*%
X142000000Y-99000000D03*
%TD*%
D11*
%TO.P,RST,*%
%TO.N,*%
X32000000Y-55500000D03*
%TD*%
%TO.P,GND1,*%
%TO.N,*%
X141000000Y-39000000D03*
%TD*%
%TO.P,PUSH_GND,*%
%TO.N,*%
X58500000Y-37500000D03*
%TD*%
%TO.P,D6(Cy1),*%
%TO.N,*%
X141000000Y-54000000D03*
%TD*%
%TO.P,Cy(GND),*%
%TO.N,*%
X144500000Y-83000000D03*
%TD*%
D12*
%TO.P,Cy(GND-Switch),*%
%TO.N,*%
X147000000Y-99000000D03*
%TD*%
D11*
%TO.P,PUSH_RST,*%
%TO.N,*%
X64500000Y-43500000D03*
%TD*%
%TO.P,D2(SDA),*%
%TO.N,*%
X141000000Y-42000000D03*
%TD*%
%TO.P,Cy(1),*%
%TO.N,*%
X147500000Y-83000000D03*
%TD*%
%TO.P,Cy(2),*%
%TO.N,*%
X141500000Y-83000000D03*
%TD*%
D12*
%TO.P,Cx(GND-Switch),*%
%TO.N,*%
X27000000Y-99000000D03*
%TD*%
D11*
%TO.P,GND,*%
%TO.N,*%
X79000000Y-68000000D03*
%TD*%
%TO.P,VCC,*%
%TO.N,*%
X32000000Y-58500000D03*
%TD*%
%TO.P,Cx(2),*%
%TO.N,*%
X32500000Y-83000000D03*
%TD*%
%TO.P,D8(Switch),*%
%TO.N,*%
X141000000Y-60000000D03*
%TD*%
%TO.P,GND,*%
%TO.N,*%
X82500000Y-20000000D03*
%TD*%
D12*
%TO.P,Cx(Switch),*%
%TO.N,*%
X32000000Y-99000000D03*
%TD*%
D11*
%TO.P,D5(Cx2),*%
%TO.N,*%
X141000000Y-51000000D03*
%TD*%
%TO.P,VCC,*%
%TO.N,*%
X76000000Y-68000000D03*
%TD*%
%TO.P,D3(SCL/SDK),*%
%TO.N,*%
X141000000Y-45000000D03*
%TD*%
%TO.P,D7(Cy2),*%
%TO.N,*%
X141000000Y-57000000D03*
%TD*%
%TO.P,SDA,*%
%TO.N,*%
X91500000Y-20000000D03*
%TD*%
%TO.P,SCK,*%
%TO.N,*%
X88500000Y-20000000D03*
%TD*%
%TO.P,VDD,*%
%TO.N,*%
X85500000Y-20000000D03*
%TD*%
D13*
%TO.N,*%
X85000000Y-69500000D02*
X79000000Y-75500000D01*
X79000000Y-75500000D02*
X69500000Y-75500000D01*
X56500000Y-29000000D02*
X76000000Y-29000000D01*
X69500000Y-75500000D02*
X58000000Y-64000000D01*
X85000000Y-68000000D02*
X85000000Y-69500000D01*
X22500000Y-62000000D02*
X22500000Y-52000000D01*
X91500000Y-18500000D02*
X91500000Y-34000000D01*
X25000000Y-49500000D02*
X45000000Y-49500000D01*
X47500000Y-47000000D02*
X47500000Y-38000000D01*
X24500000Y-64000000D02*
X22500000Y-62000000D01*
X58000000Y-64000000D02*
X24500000Y-64000000D01*
X80000000Y-19000000D02*
X82000000Y-17000000D01*
X82000000Y-17000000D02*
X90000000Y-17000000D01*
X22500000Y-52000000D02*
X25000000Y-49500000D01*
X45000000Y-49500000D02*
X47500000Y-47000000D01*
X47500000Y-38000000D02*
X56500000Y-29000000D01*
X76000000Y-29000000D02*
X80000000Y-25000000D01*
X80000000Y-25000000D02*
X80000000Y-19000000D01*
X90000000Y-17000000D02*
X91500000Y-18500000D01*
X91500000Y-34000000D02*
X99500000Y-42000000D01*
X99500000Y-42000000D02*
X141000000Y-42000000D01*
X79000000Y-68000000D02*
X79000000Y-71500000D01*
X25500000Y-61500000D02*
X25000000Y-61000000D01*
X77500000Y-73000000D02*
X70500000Y-73000000D01*
X25000000Y-54000000D02*
X26500000Y-52500000D01*
X59000000Y-61500000D02*
X25500000Y-61500000D01*
X70500000Y-73000000D02*
X59000000Y-61500000D01*
X79000000Y-71500000D02*
X77500000Y-73000000D01*
X25000000Y-61000000D02*
X25000000Y-54000000D01*
X26500000Y-52500000D02*
X46000000Y-52500000D01*
X26500000Y-99000000D02*
X22000000Y-99000000D01*
X78000000Y-23500000D02*
X78000000Y-18000000D01*
X19500000Y-96500000D02*
X19500000Y-51000000D01*
X22000000Y-99000000D02*
X19500000Y-96500000D01*
X78000000Y-18000000D02*
X81000000Y-15000000D01*
X24000000Y-46500000D02*
X43500000Y-46500000D01*
X43500000Y-46500000D02*
X44500000Y-45500000D01*
X94000000Y-32000000D02*
X101000000Y-39000000D01*
X44500000Y-45500000D02*
X44500000Y-37500000D01*
X44500000Y-37500000D02*
X55500000Y-26500000D01*
X55500000Y-26500000D02*
X75000000Y-26500000D01*
X75000000Y-26500000D02*
X78000000Y-23500000D01*
X19500000Y-51000000D02*
X24000000Y-46500000D01*
X81000000Y-15000000D02*
X91500000Y-15000000D01*
X91500000Y-15000000D02*
X94000000Y-17500000D01*
X94000000Y-17500000D02*
X94000000Y-32000000D01*
X101000000Y-39000000D02*
X141000000Y-39000000D01*
X141000000Y-61500000D02*
X141000000Y-60000000D01*
X141000000Y-57000000D02*
X143000000Y-57000000D01*
X141500000Y-73500000D02*
X141500000Y-82000000D01*
X143000000Y-57000000D02*
X144500000Y-58500000D01*
X144500000Y-58500000D02*
X144500000Y-70500000D01*
X144500000Y-70500000D02*
X141500000Y-73500000D01*
X141000000Y-54000000D02*
X145000000Y-54000000D01*
X145000000Y-54000000D02*
X147500000Y-56500000D01*
X147500000Y-56500000D02*
X147500000Y-83000000D01*
X110500000Y-51000000D02*
X141000000Y-51000000D01*
X106000000Y-55500000D02*
X110500000Y-51000000D01*
X109500000Y-48000000D02*
X141000000Y-48000000D01*
X104000000Y-53500000D02*
X109500000Y-48000000D01*
X98500000Y-45000000D02*
X141000000Y-45000000D01*
X97000000Y-44000000D02*
X98000000Y-45000000D01*
X98000000Y-45000000D02*
X98500000Y-45000000D01*
X88500000Y-35500000D02*
X97000000Y-44000000D01*
X88500000Y-20000000D02*
X88500000Y-35500000D01*
X88500000Y-35500000D02*
X88500000Y-54500000D01*
X85500000Y-20000000D02*
X85500000Y-41500000D01*
X85500000Y-41500000D02*
X68500000Y-58500000D01*
X68500000Y-58500000D02*
X58000000Y-58500000D01*
X58000000Y-58500000D02*
X60000000Y-58500000D01*
X60000000Y-58500000D02*
X69500000Y-68000000D01*
X69500000Y-68000000D02*
X76000000Y-68000000D01*
X32000000Y-58500000D02*
X58000000Y-58500000D01*
X82500000Y-26000000D02*
X82500000Y-20000000D01*
X57250000Y-31500000D02*
X77000000Y-31500000D01*
X50000000Y-38750000D02*
X57250000Y-31500000D01*
X46000000Y-52500000D02*
X50000000Y-48500000D01*
X50000000Y-48500000D02*
X50000000Y-38750000D01*
X77000000Y-31500000D02*
X82500000Y-26000000D01*
X26500000Y-99000000D02*
X27000000Y-99500000D01*
X147000000Y-94500000D02*
X144500000Y-92000000D01*
X29000000Y-104500000D02*
X145500000Y-104500000D01*
X27000000Y-102500000D02*
X29000000Y-104500000D01*
X27000000Y-99500000D02*
X27000000Y-102500000D01*
X145500000Y-104500000D02*
X147000000Y-103000000D01*
X147000000Y-103000000D02*
X147000000Y-94500000D01*
X144500000Y-92000000D02*
X144500000Y-83000000D01*
X26500000Y-99000000D02*
X27000000Y-98500000D01*
X27000000Y-98500000D02*
X27000000Y-93000000D01*
X27000000Y-93000000D02*
X29500000Y-90500000D01*
X29500000Y-90500000D02*
X29500000Y-83000000D01*
X55500000Y-69500000D02*
X66500000Y-80500000D01*
X32500000Y-82000000D02*
X32500000Y-72500000D01*
X32500000Y-72500000D02*
X35500000Y-69500000D01*
X35500000Y-69500000D02*
X55500000Y-69500000D01*
X66500000Y-80500000D02*
X81000000Y-80500000D01*
X81000000Y-80500000D02*
X106000000Y-55500000D01*
X104000000Y-53500000D02*
X79500000Y-78000000D01*
X26500000Y-82000000D02*
X26000000Y-82500000D01*
X79500000Y-78000000D02*
X68000000Y-78000000D01*
X68000000Y-78000000D02*
X56500000Y-66500000D01*
X56500000Y-66500000D02*
X34000000Y-66500000D01*
X34000000Y-66500000D02*
X26500000Y-74000000D01*
X26500000Y-74000000D02*
X26500000Y-82000000D01*
X88500000Y-54500000D02*
X82000000Y-61000000D01*
X82000000Y-61000000D02*
X82000000Y-64500000D01*
X137500000Y-99000000D02*
X32500000Y-99000000D01*
X141000000Y-61500000D02*
X141000000Y-70000000D01*
X82000000Y-64500000D02*
X82000000Y-68000000D01*
X141000000Y-70000000D02*
X134500000Y-76500000D01*
X134500000Y-96000000D02*
X137500000Y-99000000D01*
X64500000Y-49000000D02*
X64500000Y-43500000D01*
X58000000Y-55500000D02*
X64500000Y-49000000D01*
X134500000Y-76500000D02*
X134500000Y-96000000D01*
X58000000Y-55500000D02*
X32000000Y-55500000D01*
X32500000Y-99000000D02*
X32000000Y-99500000D01*
X137500000Y-99000000D02*
X141500000Y-99000000D01*
X46000000Y-52500000D02*
X49500000Y-52500000D01*
X52500000Y-49500000D02*
X52500000Y-40500000D01*
X55500000Y-37500000D02*
X58500000Y-37500000D01*
X49500000Y-52500000D02*
X52500000Y-49500000D01*
X52500000Y-40500000D02*
X55500000Y-37500000D01*
%TD*%
M02*
